<svg width="32" height="32" viewBox="0 0 32 32" fill="none" xmlns="http://www.w3.org/2000/svg">
  <defs>
    <linearGradient id="bg" x1="3" y1="1" x2="29" y2="32" gradientUnits="userSpaceOnUse">
      <stop stop-color="#68B5FF"/>
      <stop offset="0.45" stop-color="#0A84FF"/>
      <stop offset="1" stop-color="#0754D6"/>
    </linearGradient>
  </defs>
  <rect width="32" height="32" rx="8" fill="url(#bg)"/>
  <path d="M14.2 6.5C14.8 10.5 16.6 12.3 20.6 12.9C16.6 13.5 14.8 15.3 14.2 19.3C13.6 15.3 11.8 13.5 7.8 12.9C11.8 12.3 13.6 10.5 14.2 6.5Z" fill="white"/>
  <path d="M21.7 17C22 19.2 23 20.2 25.2 20.5C23 20.8 22 21.8 21.7 24C21.4 21.8 20.4 20.8 18.2 20.5C20.4 20.2 21.4 19.2 21.7 17Z" fill="white" fill-opacity="0.88"/>
</svg>
